<svg xmlns="http://www.w3.org/2000/svg" width="200px" height="200px" xmlns:xlink="http://www.w3.org/1999/xlink" viewBox="0 0 200 200" preserveAspectRatio="xMinYMin meet" ><rect id="svgEditorBackground" x="0" y="0" width="200" height="200" style="fill: none; stroke: none;"/><path d="M3.045669,-64.000998l-20.001,40.02l-44,8l32,28l-8,44l40.001,-20l39.999,20l-7.999,-44l32.001,-28l-44.002,-7.946Z" style="fill:blue;stroke:black;vector-effect:non-scaling-stroke;stroke-width:1px" id="e3_shape" transform="matrix(0.32812, 0, 0, 0.32812, 28.0007, 96)"/><path d="M158.476614,-64.000998l-20.001,40.02l-44,8l32,28l-8,44l40.001,-20l39.999,20l-7.999,-44l32.001,-28l-44.002,-7.946Z" style="fill:silver;stroke:black;vector-effect:non-scaling-stroke;stroke-width:1px" id="e10_shape" transform="matrix(0.32812, 0, 0, 0.32812, 28.0007, 96)"/><path d="M316.955225,-67.048664l-20.001,40.02l-44,8l32,28l-8,44l40.001,-20l39.999,20l-7.999,-44l32.001,-28l-44.002,-7.946Z" style="fill:silver;stroke:black;vector-effect:non-scaling-stroke;stroke-width:1px" id="e1_shape" transform="matrix(0.32812, 0, 0, 0.32812, 28.0007, 96)"/></svg>